<?xml version="1.0" encoding="UTF-8"?>
<svg xmlns="http://www.w3.org/2000/svg" version="1.1" width="370" height="370" viewBox="0 0 37 37">
<rect x="0" y="0" width="37" height="37" fill="#ffffff" />
<path fill="#000000" d="M4 4 h1 v1 h-1 v-1 M5 4 h1 v1 h-1 v-1 M6 4 h1 v1 h-1 v-1 M7 4 h1 v1 h-1 v-1 M8 4 h1 v1 h-1 v-1 M9 4 h1 v1 h-1 v-1 M10 4 h1 v1 h-1 v-1 M12 4 h1 v1 h-1 v-1 M13 4 h1 v1 h-1 v-1 M14 4 h1 v1 h-1 v-1 M16 4 h1 v1 h-1 v-1 M17 4 h1 v1 h-1 v-1 M18 4 h1 v1 h-1 v-1 M19 4 h1 v1 h-1 v-1 M20 4 h1 v1 h-1 v-1 M26 4 h1 v1 h-1 v-1 M27 4 h1 v1 h-1 v-1 M28 4 h1 v1 h-1 v-1 M29 4 h1 v1 h-1 v-1 M30 4 h1 v1 h-1 v-1 M31 4 h1 v1 h-1 v-1 M32 4 h1 v1 h-1 v-1 M4 5 h1 v1 h-1 v-1 M10 5 h1 v1 h-1 v-1 M12 5 h1 v1 h-1 v-1 M14 5 h1 v1 h-1 v-1 M17 5 h1 v1 h-1 v-1 M20 5 h1 v1 h-1 v-1 M24 5 h1 v1 h-1 v-1 M26 5 h1 v1 h-1 v-1 M32 5 h1 v1 h-1 v-1 M4 6 h1 v1 h-1 v-1 M6 6 h1 v1 h-1 v-1 M7 6 h1 v1 h-1 v-1 M8 6 h1 v1 h-1 v-1 M10 6 h1 v1 h-1 v-1 M12 6 h1 v1 h-1 v-1 M13 6 h1 v1 h-1 v-1 M14 6 h1 v1 h-1 v-1 M15 6 h1 v1 h-1 v-1 M16 6 h1 v1 h-1 v-1 M17 6 h1 v1 h-1 v-1 M18 6 h1 v1 h-1 v-1 M19 6 h1 v1 h-1 v-1 M26 6 h1 v1 h-1 v-1 M28 6 h1 v1 h-1 v-1 M29 6 h1 v1 h-1 v-1 M30 6 h1 v1 h-1 v-1 M32 6 h1 v1 h-1 v-1 M4 7 h1 v1 h-1 v-1 M6 7 h1 v1 h-1 v-1 M7 7 h1 v1 h-1 v-1 M8 7 h1 v1 h-1 v-1 M10 7 h1 v1 h-1 v-1 M13 7 h1 v1 h-1 v-1 M15 7 h1 v1 h-1 v-1 M17 7 h1 v1 h-1 v-1 M20 7 h1 v1 h-1 v-1 M21 7 h1 v1 h-1 v-1 M24 7 h1 v1 h-1 v-1 M26 7 h1 v1 h-1 v-1 M28 7 h1 v1 h-1 v-1 M29 7 h1 v1 h-1 v-1 M30 7 h1 v1 h-1 v-1 M32 7 h1 v1 h-1 v-1 M4 8 h1 v1 h-1 v-1 M6 8 h1 v1 h-1 v-1 M7 8 h1 v1 h-1 v-1 M8 8 h1 v1 h-1 v-1 M10 8 h1 v1 h-1 v-1 M13 8 h1 v1 h-1 v-1 M14 8 h1 v1 h-1 v-1 M16 8 h1 v1 h-1 v-1 M17 8 h1 v1 h-1 v-1 M18 8 h1 v1 h-1 v-1 M19 8 h1 v1 h-1 v-1 M20 8 h1 v1 h-1 v-1 M21 8 h1 v1 h-1 v-1 M23 8 h1 v1 h-1 v-1 M24 8 h1 v1 h-1 v-1 M26 8 h1 v1 h-1 v-1 M28 8 h1 v1 h-1 v-1 M29 8 h1 v1 h-1 v-1 M30 8 h1 v1 h-1 v-1 M32 8 h1 v1 h-1 v-1 M4 9 h1 v1 h-1 v-1 M10 9 h1 v1 h-1 v-1 M12 9 h1 v1 h-1 v-1 M13 9 h1 v1 h-1 v-1 M15 9 h1 v1 h-1 v-1 M16 9 h1 v1 h-1 v-1 M17 9 h1 v1 h-1 v-1 M18 9 h1 v1 h-1 v-1 M19 9 h1 v1 h-1 v-1 M20 9 h1 v1 h-1 v-1 M21 9 h1 v1 h-1 v-1 M24 9 h1 v1 h-1 v-1 M26 9 h1 v1 h-1 v-1 M32 9 h1 v1 h-1 v-1 M4 10 h1 v1 h-1 v-1 M5 10 h1 v1 h-1 v-1 M6 10 h1 v1 h-1 v-1 M7 10 h1 v1 h-1 v-1 M8 10 h1 v1 h-1 v-1 M9 10 h1 v1 h-1 v-1 M10 10 h1 v1 h-1 v-1 M12 10 h1 v1 h-1 v-1 M14 10 h1 v1 h-1 v-1 M16 10 h1 v1 h-1 v-1 M18 10 h1 v1 h-1 v-1 M20 10 h1 v1 h-1 v-1 M22 10 h1 v1 h-1 v-1 M24 10 h1 v1 h-1 v-1 M26 10 h1 v1 h-1 v-1 M27 10 h1 v1 h-1 v-1 M28 10 h1 v1 h-1 v-1 M29 10 h1 v1 h-1 v-1 M30 10 h1 v1 h-1 v-1 M31 10 h1 v1 h-1 v-1 M32 10 h1 v1 h-1 v-1 M12 11 h1 v1 h-1 v-1 M15 11 h1 v1 h-1 v-1 M17 11 h1 v1 h-1 v-1 M18 11 h1 v1 h-1 v-1 M19 11 h1 v1 h-1 v-1 M20 11 h1 v1 h-1 v-1 M21 11 h1 v1 h-1 v-1 M22 11 h1 v1 h-1 v-1 M23 11 h1 v1 h-1 v-1 M24 11 h1 v1 h-1 v-1 M6 12 h1 v1 h-1 v-1 M7 12 h1 v1 h-1 v-1 M8 12 h1 v1 h-1 v-1 M10 12 h1 v1 h-1 v-1 M12 12 h1 v1 h-1 v-1 M13 12 h1 v1 h-1 v-1 M15 12 h1 v1 h-1 v-1 M16 12 h1 v1 h-1 v-1 M17 12 h1 v1 h-1 v-1 M18 12 h1 v1 h-1 v-1 M20 12 h1 v1 h-1 v-1 M23 12 h1 v1 h-1 v-1 M25 12 h1 v1 h-1 v-1 M26 12 h1 v1 h-1 v-1 M27 12 h1 v1 h-1 v-1 M30 12 h1 v1 h-1 v-1 M31 12 h1 v1 h-1 v-1 M32 12 h1 v1 h-1 v-1 M5 13 h1 v1 h-1 v-1 M6 13 h1 v1 h-1 v-1 M11 13 h1 v1 h-1 v-1 M12 13 h1 v1 h-1 v-1 M13 13 h1 v1 h-1 v-1 M16 13 h1 v1 h-1 v-1 M19 13 h1 v1 h-1 v-1 M20 13 h1 v1 h-1 v-1 M21 13 h1 v1 h-1 v-1 M22 13 h1 v1 h-1 v-1 M24 13 h1 v1 h-1 v-1 M25 13 h1 v1 h-1 v-1 M26 13 h1 v1 h-1 v-1 M27 13 h1 v1 h-1 v-1 M28 13 h1 v1 h-1 v-1 M32 13 h1 v1 h-1 v-1 M4 14 h1 v1 h-1 v-1 M8 14 h1 v1 h-1 v-1 M9 14 h1 v1 h-1 v-1 M10 14 h1 v1 h-1 v-1 M11 14 h1 v1 h-1 v-1 M12 14 h1 v1 h-1 v-1 M13 14 h1 v1 h-1 v-1 M14 14 h1 v1 h-1 v-1 M16 14 h1 v1 h-1 v-1 M17 14 h1 v1 h-1 v-1 M20 14 h1 v1 h-1 v-1 M21 14 h1 v1 h-1 v-1 M23 14 h1 v1 h-1 v-1 M25 14 h1 v1 h-1 v-1 M26 14 h1 v1 h-1 v-1 M27 14 h1 v1 h-1 v-1 M30 14 h1 v1 h-1 v-1 M4 15 h1 v1 h-1 v-1 M6 15 h1 v1 h-1 v-1 M7 15 h1 v1 h-1 v-1 M8 15 h1 v1 h-1 v-1 M13 15 h1 v1 h-1 v-1 M15 15 h1 v1 h-1 v-1 M16 15 h1 v1 h-1 v-1 M17 15 h1 v1 h-1 v-1 M21 15 h1 v1 h-1 v-1 M23 15 h1 v1 h-1 v-1 M24 15 h1 v1 h-1 v-1 M25 15 h1 v1 h-1 v-1 M26 15 h1 v1 h-1 v-1 M27 15 h1 v1 h-1 v-1 M29 15 h1 v1 h-1 v-1 M31 15 h1 v1 h-1 v-1 M5 16 h1 v1 h-1 v-1 M6 16 h1 v1 h-1 v-1 M8 16 h1 v1 h-1 v-1 M9 16 h1 v1 h-1 v-1 M10 16 h1 v1 h-1 v-1 M12 16 h1 v1 h-1 v-1 M13 16 h1 v1 h-1 v-1 M14 16 h1 v1 h-1 v-1 M15 16 h1 v1 h-1 v-1 M18 16 h1 v1 h-1 v-1 M19 16 h1 v1 h-1 v-1 M22 16 h1 v1 h-1 v-1 M23 16 h1 v1 h-1 v-1 M25 16 h1 v1 h-1 v-1 M27 16 h1 v1 h-1 v-1 M30 16 h1 v1 h-1 v-1 M31 16 h1 v1 h-1 v-1 M32 16 h1 v1 h-1 v-1 M13 17 h1 v1 h-1 v-1 M16 17 h1 v1 h-1 v-1 M19 17 h1 v1 h-1 v-1 M20 17 h1 v1 h-1 v-1 M21 17 h1 v1 h-1 v-1 M23 17 h1 v1 h-1 v-1 M24 17 h1 v1 h-1 v-1 M25 17 h1 v1 h-1 v-1 M26 17 h1 v1 h-1 v-1 M28 17 h1 v1 h-1 v-1 M29 17 h1 v1 h-1 v-1 M31 17 h1 v1 h-1 v-1 M32 17 h1 v1 h-1 v-1 M4 18 h1 v1 h-1 v-1 M7 18 h1 v1 h-1 v-1 M8 18 h1 v1 h-1 v-1 M9 18 h1 v1 h-1 v-1 M10 18 h1 v1 h-1 v-1 M11 18 h1 v1 h-1 v-1 M12 18 h1 v1 h-1 v-1 M13 18 h1 v1 h-1 v-1 M14 18 h1 v1 h-1 v-1 M16 18 h1 v1 h-1 v-1 M17 18 h1 v1 h-1 v-1 M18 18 h1 v1 h-1 v-1 M21 18 h1 v1 h-1 v-1 M24 18 h1 v1 h-1 v-1 M26 18 h1 v1 h-1 v-1 M27 18 h1 v1 h-1 v-1 M6 19 h1 v1 h-1 v-1 M7 19 h1 v1 h-1 v-1 M8 19 h1 v1 h-1 v-1 M11 19 h1 v1 h-1 v-1 M12 19 h1 v1 h-1 v-1 M14 19 h1 v1 h-1 v-1 M15 19 h1 v1 h-1 v-1 M19 19 h1 v1 h-1 v-1 M21 19 h1 v1 h-1 v-1 M28 19 h1 v1 h-1 v-1 M29 19 h1 v1 h-1 v-1 M6 20 h1 v1 h-1 v-1 M9 20 h1 v1 h-1 v-1 M10 20 h1 v1 h-1 v-1 M14 20 h1 v1 h-1 v-1 M15 20 h1 v1 h-1 v-1 M17 20 h1 v1 h-1 v-1 M18 20 h1 v1 h-1 v-1 M19 20 h1 v1 h-1 v-1 M21 20 h1 v1 h-1 v-1 M22 20 h1 v1 h-1 v-1 M23 20 h1 v1 h-1 v-1 M24 20 h1 v1 h-1 v-1 M25 20 h1 v1 h-1 v-1 M29 20 h1 v1 h-1 v-1 M30 20 h1 v1 h-1 v-1 M4 21 h1 v1 h-1 v-1 M13 21 h1 v1 h-1 v-1 M14 21 h1 v1 h-1 v-1 M15 21 h1 v1 h-1 v-1 M16 21 h1 v1 h-1 v-1 M19 21 h1 v1 h-1 v-1 M21 21 h1 v1 h-1 v-1 M22 21 h1 v1 h-1 v-1 M25 21 h1 v1 h-1 v-1 M27 21 h1 v1 h-1 v-1 M28 21 h1 v1 h-1 v-1 M29 21 h1 v1 h-1 v-1 M31 21 h1 v1 h-1 v-1 M32 21 h1 v1 h-1 v-1 M4 22 h1 v1 h-1 v-1 M10 22 h1 v1 h-1 v-1 M13 22 h1 v1 h-1 v-1 M14 22 h1 v1 h-1 v-1 M16 22 h1 v1 h-1 v-1 M19 22 h1 v1 h-1 v-1 M24 22 h1 v1 h-1 v-1 M26 22 h1 v1 h-1 v-1 M27 22 h1 v1 h-1 v-1 M29 22 h1 v1 h-1 v-1 M4 23 h1 v1 h-1 v-1 M6 23 h1 v1 h-1 v-1 M11 23 h1 v1 h-1 v-1 M12 23 h1 v1 h-1 v-1 M14 23 h1 v1 h-1 v-1 M15 23 h1 v1 h-1 v-1 M16 23 h1 v1 h-1 v-1 M20 23 h1 v1 h-1 v-1 M21 23 h1 v1 h-1 v-1 M26 23 h1 v1 h-1 v-1 M28 23 h1 v1 h-1 v-1 M32 23 h1 v1 h-1 v-1 M4 24 h1 v1 h-1 v-1 M6 24 h1 v1 h-1 v-1 M7 24 h1 v1 h-1 v-1 M8 24 h1 v1 h-1 v-1 M9 24 h1 v1 h-1 v-1 M10 24 h1 v1 h-1 v-1 M14 24 h1 v1 h-1 v-1 M16 24 h1 v1 h-1 v-1 M19 24 h1 v1 h-1 v-1 M21 24 h1 v1 h-1 v-1 M22 24 h1 v1 h-1 v-1 M24 24 h1 v1 h-1 v-1 M25 24 h1 v1 h-1 v-1 M26 24 h1 v1 h-1 v-1 M27 24 h1 v1 h-1 v-1 M28 24 h1 v1 h-1 v-1 M30 24 h1 v1 h-1 v-1 M31 24 h1 v1 h-1 v-1 M12 25 h1 v1 h-1 v-1 M13 25 h1 v1 h-1 v-1 M14 25 h1 v1 h-1 v-1 M16 25 h1 v1 h-1 v-1 M18 25 h1 v1 h-1 v-1 M19 25 h1 v1 h-1 v-1 M20 25 h1 v1 h-1 v-1 M22 25 h1 v1 h-1 v-1 M23 25 h1 v1 h-1 v-1 M24 25 h1 v1 h-1 v-1 M28 25 h1 v1 h-1 v-1 M29 25 h1 v1 h-1 v-1 M32 25 h1 v1 h-1 v-1 M4 26 h1 v1 h-1 v-1 M5 26 h1 v1 h-1 v-1 M6 26 h1 v1 h-1 v-1 M7 26 h1 v1 h-1 v-1 M8 26 h1 v1 h-1 v-1 M9 26 h1 v1 h-1 v-1 M10 26 h1 v1 h-1 v-1 M13 26 h1 v1 h-1 v-1 M16 26 h1 v1 h-1 v-1 M18 26 h1 v1 h-1 v-1 M21 26 h1 v1 h-1 v-1 M22 26 h1 v1 h-1 v-1 M23 26 h1 v1 h-1 v-1 M24 26 h1 v1 h-1 v-1 M26 26 h1 v1 h-1 v-1 M28 26 h1 v1 h-1 v-1 M4 27 h1 v1 h-1 v-1 M10 27 h1 v1 h-1 v-1 M13 27 h1 v1 h-1 v-1 M14 27 h1 v1 h-1 v-1 M16 27 h1 v1 h-1 v-1 M18 27 h1 v1 h-1 v-1 M20 27 h1 v1 h-1 v-1 M21 27 h1 v1 h-1 v-1 M22 27 h1 v1 h-1 v-1 M23 27 h1 v1 h-1 v-1 M24 27 h1 v1 h-1 v-1 M28 27 h1 v1 h-1 v-1 M29 27 h1 v1 h-1 v-1 M31 27 h1 v1 h-1 v-1 M4 28 h1 v1 h-1 v-1 M6 28 h1 v1 h-1 v-1 M7 28 h1 v1 h-1 v-1 M8 28 h1 v1 h-1 v-1 M10 28 h1 v1 h-1 v-1 M12 28 h1 v1 h-1 v-1 M13 28 h1 v1 h-1 v-1 M15 28 h1 v1 h-1 v-1 M17 28 h1 v1 h-1 v-1 M18 28 h1 v1 h-1 v-1 M20 28 h1 v1 h-1 v-1 M21 28 h1 v1 h-1 v-1 M22 28 h1 v1 h-1 v-1 M24 28 h1 v1 h-1 v-1 M25 28 h1 v1 h-1 v-1 M26 28 h1 v1 h-1 v-1 M27 28 h1 v1 h-1 v-1 M28 28 h1 v1 h-1 v-1 M29 28 h1 v1 h-1 v-1 M30 28 h1 v1 h-1 v-1 M4 29 h1 v1 h-1 v-1 M6 29 h1 v1 h-1 v-1 M7 29 h1 v1 h-1 v-1 M8 29 h1 v1 h-1 v-1 M10 29 h1 v1 h-1 v-1 M12 29 h1 v1 h-1 v-1 M21 29 h1 v1 h-1 v-1 M22 29 h1 v1 h-1 v-1 M23 29 h1 v1 h-1 v-1 M24 29 h1 v1 h-1 v-1 M25 29 h1 v1 h-1 v-1 M27 29 h1 v1 h-1 v-1 M29 29 h1 v1 h-1 v-1 M30 29 h1 v1 h-1 v-1 M4 30 h1 v1 h-1 v-1 M6 30 h1 v1 h-1 v-1 M7 30 h1 v1 h-1 v-1 M8 30 h1 v1 h-1 v-1 M10 30 h1 v1 h-1 v-1 M12 30 h1 v1 h-1 v-1 M15 30 h1 v1 h-1 v-1 M18 30 h1 v1 h-1 v-1 M19 30 h1 v1 h-1 v-1 M20 30 h1 v1 h-1 v-1 M21 30 h1 v1 h-1 v-1 M23 30 h1 v1 h-1 v-1 M24 30 h1 v1 h-1 v-1 M25 30 h1 v1 h-1 v-1 M26 30 h1 v1 h-1 v-1 M27 30 h1 v1 h-1 v-1 M28 30 h1 v1 h-1 v-1 M30 30 h1 v1 h-1 v-1 M31 30 h1 v1 h-1 v-1 M4 31 h1 v1 h-1 v-1 M10 31 h1 v1 h-1 v-1 M13 31 h1 v1 h-1 v-1 M14 31 h1 v1 h-1 v-1 M15 31 h1 v1 h-1 v-1 M16 31 h1 v1 h-1 v-1 M17 31 h1 v1 h-1 v-1 M21 31 h1 v1 h-1 v-1 M26 31 h1 v1 h-1 v-1 M28 31 h1 v1 h-1 v-1 M29 31 h1 v1 h-1 v-1 M31 31 h1 v1 h-1 v-1 M4 32 h1 v1 h-1 v-1 M5 32 h1 v1 h-1 v-1 M6 32 h1 v1 h-1 v-1 M7 32 h1 v1 h-1 v-1 M8 32 h1 v1 h-1 v-1 M9 32 h1 v1 h-1 v-1 M10 32 h1 v1 h-1 v-1 M15 32 h1 v1 h-1 v-1 M16 32 h1 v1 h-1 v-1 M17 32 h1 v1 h-1 v-1 M18 32 h1 v1 h-1 v-1 M20 32 h1 v1 h-1 v-1 M22 32 h1 v1 h-1 v-1 M23 32 h1 v1 h-1 v-1 M24 32 h1 v1 h-1 v-1 M25 32 h1 v1 h-1 v-1 M26 32 h1 v1 h-1 v-1 M28 32 h1 v1 h-1 v-1 M30 32 h1 v1 h-1 v-1 " />
</svg>